<?xml version="1.0" standalone="no"?>
<!DOCTYPE svg PUBLIC "-//W3C//DTD SVG 20010904//EN"
 "http://www.w3.org/TR/2001/REC-SVG-20010904/DTD/svg10.dtd">
<svg version="1.0" xmlns="http://www.w3.org/2000/svg"
 width="64.000000pt" height="64.000000pt" viewBox="0 0 64.000000 64.000000"
 preserveAspectRatio="xMidYMid meet">

<g transform="translate(0.000000,64.000000) scale(0.100000,-0.100000)"
fill="#000000" stroke="none">
<path d="M222 608 c5 -15 28 -23 28 -10 0 5 -7 13 -16 16 -10 4 -14 1 -12 -6z"/>
<path d="M277 604 c6 -16 19 -18 28 -4 9 15 25 2 18 -15 -3 -10 2 -15 16 -15
23 0 28 -14 9 -26 -7 -5 -5 -11 7 -21 18 -13 18 -13 -1 -28 -10 -8 -35 -14
-54 -12 -31 2 -35 5 -35 28 1 19 -4 25 -13 21 -8 -3 -12 -14 -9 -28 4 -21 1
-24 -29 -24 -19 0 -34 5 -34 10 0 6 -8 10 -17 10 -15 0 -16 -2 -3 -10 13 -8
12 -10 -4 -10 -12 0 -16 5 -12 16 3 9 6 18 6 20 0 2 7 4 15 4 8 0 15 7 15 15
0 8 -5 15 -11 15 -5 0 -7 5 -4 11 4 6 13 8 21 5 7 -3 16 -1 19 4 10 16 -31 11
-44 -4 -9 -11 -9 -16 0 -21 19 -12 -11 -25 -58 -25 -35 0 -43 -3 -43 -19 0
-10 -9 -21 -20 -24 -18 -5 -20 -14 -20 -101 0 -89 1 -96 20 -96 18 0 20 -8 23
-103 l3 -102 2 103 c2 96 3 102 23 102 19 0 20 -5 17 -100 -3 -90 -1 -100 15
-100 15 0 17 11 17 100 l0 100 89 0 89 0 -5 -40 -6 -40 37 0 c37 0 39 -2 50
-53 6 -27 6 -27 -43 -27 -30 0 -51 5 -54 13 -3 7 -6 5 -6 -5 -1 -10 -5 -18
-11 -18 -5 0 -10 -9 -10 -20 0 -18 7 -20 80 -20 73 0 80 2 80 20 0 11 -4 20
-9 20 -9 0 -18 36 -35 138 l-5 32 44 0 c37 0 44 -3 48 -23 l4 -22 2 23 c1 15
7 22 21 22 19 0 20 -7 20 -100 0 -82 3 -100 15 -100 12 0 15 18 15 100 l0 100
25 0 25 0 0 100 0 100 -25 0 c-18 0 -25 5 -25 20 0 17 -7 20 -40 20 -33 0 -40
-3 -40 -20 0 -18 -6 -20 -57 -19 -32 1 -50 3 -40 6 17 5 25 43 8 43 -5 0 -7 9
-4 21 4 15 0 22 -16 26 -11 3 -19 9 -16 13 7 12 -10 21 -45 25 -22 3 -28 0
-23 -11z m-167 -109 c0 -8 -9 -15 -20 -15 -11 0 -20 7 -20 15 0 8 9 15 20 15
11 0 20 -7 20 -15z m410 0 c0 -8 -9 -15 -20 -15 -11 0 -20 7 -20 15 0 8 9 15
20 15 11 0 20 -7 20 -15z m-390 -31 c0 -3 -21 -35 -47 -71 l-48 -65 -3 36 c-4
46 38 106 74 106 13 0 24 -3 24 -6z m130 0 c0 -4 -28 -44 -62 -90 -53 -71 -66
-84 -91 -84 -33 0 -34 -3 45 103 45 59 65 77 83 77 14 0 25 -3 25 -6z m128 -2
c-1 -5 -30 -45 -63 -90 -50 -68 -65 -81 -88 -82 -33 0 -34 -3 45 103 46 60 64
77 84 77 14 0 24 -4 22 -8z m132 2 c0 -4 -95 -134 -127 -173 -2 -3 -11 3 -20
12 -15 15 -12 22 41 91 44 59 62 76 81 76 14 0 25 -3 25 -6z m22 -143 c-17
-23 -72 -43 -72 -26 0 3 19 31 43 62 l42 57 3 -34 c2 -21 -3 -42 -16 -59z
m-172 -51 c0 -23 -4 -30 -20 -30 -16 0 -20 7 -20 30 0 23 4 30 20 30 16 0 20
-7 20 -30z m10 -50 c0 -5 -13 -10 -30 -10 -16 0 -30 5 -30 10 0 6 14 10 30 10
17 0 30 -4 30 -10z m-3 -127 c-20 -2 -52 -2 -70 0 -17 2 0 4 38 4 39 0 53 -2
32 -4z"/>
<path d="M282 510 c0 -14 2 -19 5 -12 2 6 2 18 0 25 -3 6 -5 1 -5 -13z"/>
<path d="M302 170 c0 -14 2 -19 5 -12 2 6 2 18 0 25 -3 6 -5 1 -5 -13z"/>
<path d="M333 3 c9 -2 25 -2 35 0 9 3 1 5 -18 5 -19 0 -27 -2 -17 -5z"/>
</g>
</svg>
