<?xml version="1.0" standalone="no"?>
<!DOCTYPE svg PUBLIC "-//W3C//DTD SVG 20010904//EN"
 "http://www.w3.org/TR/2001/REC-SVG-20010904/DTD/svg10.dtd">
<svg version="1.0" xmlns="http://www.w3.org/2000/svg"
 width="512.000000pt" height="512.000000pt" viewBox="0 0 512.000000 512.000000"
 preserveAspectRatio="xMidYMid meet">

<g transform="translate(0.000000,512.000000) scale(0.100000,-0.100000)"
fill="#000000" stroke="none">
<path d="M500 5031 c-71 -23 -122 -66 -156 -131 -15 -29 -19 -63 -22 -187 l-4
-153 242 0 242 0 -4 153 c-4 164 -11 190 -67 250 -53 58 -164 90 -231 68z"/>
<path d="M4500 5031 c-71 -23 -122 -66 -156 -131 -15 -29 -19 -63 -22 -187
l-4 -153 242 0 242 0 -4 153 c-4 164 -11 190 -67 250 -53 58 -164 90 -231 68z"/>
<path d="M397 3522 l-317 -317 0 -243 0 -242 43 0 42 0 560 560 560 560 -285
0 -285 0 -318 -318z"/>
<path d="M1275 3280 l-560 -560 285 0 285 0 560 560 560 560 -285 0 -285 0
-560 -560z"/>
<path d="M2395 3280 l-560 -560 285 0 285 0 560 560 560 560 -285 0 -285 0
-560 -560z"/>
<path d="M3515 3280 l-560 -560 285 0 285 0 560 560 560 560 -285 0 -285 0
-560 -560z"/>
<path d="M4555 3200 l-480 -480 285 0 285 0 198 198 197 198 -2 282 -3 282
-480 -480z"/>
<path d="M397 2082 l-317 -317 0 -243 0 -242 43 0 42 0 560 560 560 560 -285
0 -285 0 -318 -318z"/>
<path d="M1275 1840 l-560 -560 285 0 285 0 560 560 560 560 -285 0 -285 0
-560 -560z"/>
<path d="M2395 1840 l-560 -560 285 0 285 0 560 560 560 560 -285 0 -285 0
-560 -560z"/>
<path d="M3515 1840 l-560 -560 285 0 285 0 560 560 560 560 -285 0 -285 0
-560 -560z"/>
<path d="M4555 1760 l-480 -480 285 0 285 0 198 198 197 198 -2 282 -3 282
-480 -480z"/>
<path d="M310 302 c-22 -10 -42 -32 -54 -56 -17 -36 -18 -43 -5 -79 8 -22 27
-50 42 -61 27 -20 41 -21 267 -21 226 0 240 1 267 21 15 11 34 39 42 61 13 36
12 43 -5 79 -33 68 -57 74 -304 74 -185 0 -220 -2 -250 -18z"/>
<path d="M4310 302 c-22 -10 -42 -32 -54 -56 -17 -36 -18 -43 -5 -79 8 -22 27
-50 42 -61 27 -20 41 -21 267 -21 226 0 240 1 267 21 15 11 34 39 42 61 13 36
12 43 -5 79 -33 68 -57 74 -304 74 -185 0 -220 -2 -250 -18z"/>
</g>
</svg>
